<svg viewBox="0 0 9 11" fill="none" xmlns="http://www.w3.org/2000/svg">
<path fill-rule="evenodd" clip-rule="evenodd" d="M4.5 0C4.67047 0 4.83395 0.0724249 4.95449 0.201342C5.07502 0.330259 5.14274 0.505107 5.14274 0.687423V8.65191L7.90139 5.70011C7.96115 5.6362 8.03209 5.5855 8.11017 5.55091C8.18825 5.51632 8.27193 5.49852 8.35645 5.49852C8.44096 5.49852 8.52464 5.51632 8.60272 5.55091C8.6808 5.5855 8.75175 5.6362 8.81151 5.70011C8.87127 5.76403 8.91867 5.8399 8.95101 5.92341C8.98335 6.00692 9 6.09642 9 6.18681C9 6.2772 8.98335 6.3667 8.95101 6.45021C8.91867 6.53371 8.87127 6.60959 8.81151 6.6735L4.95506 10.798C4.89536 10.8621 4.82443 10.9129 4.74634 10.9475C4.66825 10.9822 4.58454 11 4.5 11C4.41546 11 4.33175 10.9822 4.25366 10.9475C4.17557 10.9129 4.10464 10.8621 4.04494 10.798L0.188492 6.6735C0.128733 6.60959 0.0813292 6.53371 0.0489876 6.45021C0.016646 6.3667 0 6.2772 0 6.18681C0 6.09642 0.016646 6.00692 0.0489876 5.92341C0.0813292 5.8399 0.128733 5.76403 0.188492 5.70011C0.309182 5.57103 0.472872 5.49852 0.643553 5.49852C0.728066 5.49852 0.811751 5.51632 0.889831 5.55091C0.96791 5.5855 1.03885 5.6362 1.09861 5.70011L3.85726 8.65191V0.687423C3.85726 0.505107 3.92498 0.330259 4.04551 0.201342C4.16605 0.0724249 4.32953 0 4.5 0Z" fill="black"/>
</svg>
