<svg viewBox="0 0 19 19" fill="none" xmlns="http://www.w3.org/2000/svg">
<path d="M0.43934 16.4393C-0.146447 17.0251 -0.146447 17.9749 0.43934 18.5607C1.02513 19.1464 1.97487 19.1464 2.56066 18.5607L9.5 11.6213L16.4393 18.5607C17.0251 19.1465 17.9749 19.1465 18.5607 18.5607C19.1464 17.9749 19.1464 17.0251 18.5607 16.4393L11.6213 9.5L18.5607 2.56066C19.1464 1.97487 19.1464 1.02513 18.5607 0.43934C17.9749 -0.146447 17.0251 -0.146447 16.4393 0.43934L9.5 7.37868L2.56066 0.439342C1.97487 -0.146444 1.02513 -0.146444 0.43934 0.439342C-0.146447 1.02513 -0.146447 1.97488 0.43934 2.56066L7.37868 9.5L0.43934 16.4393Z" fill="black"/>
</svg>
