<svg  viewBox="0 0 69 69" fill="none" xmlns="http://www.w3.org/2000/svg">
    <path d="M69 34.5C69 53.5538 53.5538 69 34.5 69C15.4462 69 0 53.5538 0 34.5C0 15.4462 15.4462 0 34.5 0C53.5538 0 69 15.4462 69 34.5Z" fill="#FC2E20"/>
    <path d="M44.4803 28.22C45.3131 27.3872 45.3131 26.037 44.4803 25.2043L44.0265 24.7504C43.1937 23.9177 41.8436 23.9177 41.0108 24.7504L34.6154 31.1459L28.2199 24.7504C27.3872 23.9177 26.037 23.9177 25.2043 24.7504L24.7504 25.2043C23.9177 26.037 23.9177 27.3872 24.7504 28.2199L31.1459 34.6154L24.7504 41.0108C23.9177 41.8436 23.9177 43.1937 24.7504 44.0265L25.2043 44.4803C26.037 45.3131 27.3872 45.3131 28.2199 44.4803L34.6154 38.0849L41.0108 44.4803C41.8436 45.3131 43.1937 45.3131 44.0265 44.4803L44.4803 44.0265C45.3131 43.1937 45.3131 41.8436 44.4803 41.0108L38.0849 34.6154L44.4803 28.22Z" fill="white"/>
</svg>
