<svg viewBox="0 0 69 69" fill="none" xmlns="http://www.w3.org/2000/svg">
<path d="M69 34.5C69 53.5538 53.5538 69 34.5 69C15.4462 69 0 53.5538 0 34.5C0 15.4462 15.4462 0 34.5 0C53.5538 0 69 15.4462 69 34.5Z" fill="#FC2E20"/>
<path d="M49.5618 22.0176H43.7284V18.8382C43.7284 17.3169 42.7202 16.0839 41.4822 16.0839H27.6957C26.4531 16.0839 25.4496 17.3169 25.4496 18.8382V22.0176H25.0276C23.1753 22.0176 21.3183 22.0128 19.4661 22.0176C16.4321 22.027 14.0734 24.4128 14.0734 27.4646V42.9885C14.0734 46.1254 16.3946 48.4734 19.5036 48.4734H49.5899C49.9229 48.4734 50.2605 48.4734 50.5888 48.412C53.3507 47.9017 55.1045 45.7711 55.1045 42.9318V27.5922C55.1045 24.3561 52.7786 22.0176 49.5618 22.0176ZM28.9806 19.8397C28.9806 18.824 29.7965 18.002 30.8047 18.002H38.3732C39.3814 18.002 40.1973 18.824 40.1973 19.8397V20.2318C40.1973 21.2475 39.3814 22.0695 38.3732 22.0695H30.8047C29.7965 22.0695 28.9806 21.2475 28.9806 20.2318V19.8397ZM34.4764 44.7743C29.3276 44.7365 25.1167 40.4044 25.1542 35.1793C25.1917 29.9543 29.4448 25.7214 34.6265 25.7639C39.8316 25.8017 44.0566 30.0771 44.0191 35.2644C43.9863 40.565 39.7237 44.8121 34.4764 44.7743ZM34.5843 28.8677C31.1002 28.8677 28.2303 31.7212 28.2303 35.1888C28.2303 38.7461 31.0533 41.6374 34.5608 41.6705C38.0262 41.7035 40.9617 38.7414 40.9382 35.2407C40.9195 31.7023 38.0919 28.8677 34.5843 28.8677Z" fill="white"/>
<path d="M58.3042 44.9115C58.3042 48.977 55.0388 52.2727 51.0108 52.2727C46.9828 52.2727 43.7175 48.977 43.7175 44.9115C43.7175 40.846 46.9828 37.5502 51.0108 37.5502C55.0388 37.5502 58.3042 40.846 58.3042 44.9115Z" fill="#940000"/>
<path d="M47.4325 48.1732C47.1845 48.4211 47.1845 48.8231 47.4325 49.071C47.6804 49.319 48.0824 49.319 48.3303 49.071L51.2675 46.1339L54.2046 49.071C54.4526 49.319 54.8546 49.319 55.1025 49.071C55.3504 48.8231 55.3504 48.4211 55.1025 48.1732L52.1654 45.236L55.1025 42.2989C55.3504 42.0509 55.3504 41.6489 55.1025 41.401C54.8546 41.153 54.4526 41.153 54.2046 41.401L51.2675 44.3381L48.3303 41.401C48.0824 41.153 47.6804 41.153 47.4325 41.401C47.1845 41.6489 47.1845 42.0509 47.4325 42.2989L50.3696 45.236L47.4325 48.1732Z" fill="white"/>
</svg>
