<svg viewBox="0 0 69 69" fill="none" xmlns="http://www.w3.org/2000/svg">
<path d="M69 34.5C69 53.5538 53.5538 69 34.5 69C15.4462 69 0 53.5538 0 34.5C0 15.4462 15.4462 0 34.5 0C53.5538 0 69 15.4462 69 34.5Z" fill="#FC2E20"/>
<path d="M35 42.612C39.1362 42.612 42.5 39.2069 42.5 35.0199V23.6319C42.5 19.424 39.1531 16 35.0394 16C34.9074 16.0008 34.7759 16.0167 34.6475 16.0475C32.7223 16.1419 30.9067 16.9819 29.5763 18.3937C28.2459 19.8054 27.5026 21.6808 27.5 23.6319V35.0199C27.5 39.2069 30.8638 42.612 35 42.612Z" fill="white"/>
<path d="M33.125 50.073V54H36.875V50.073C44.2606 49.1335 50 42.7505 50 35.0199H46.25C46.25 41.3004 41.2044 46.408 35 46.408C28.7956 46.408 23.75 41.3004 23.75 35.0199H20C20 42.7486 25.7394 49.1335 33.125 50.073Z" fill="white"/>
<path d="M50.5867 19.3612C50.5867 23.4267 47.3214 26.7225 43.2934 26.7225C39.2654 26.7225 36 23.4267 36 19.3612C36 15.2957 39.2654 12 43.2934 12C47.3214 12 50.5867 15.2957 50.5867 19.3612Z" fill="#940000"/>
<path d="M39.715 22.6229C39.4671 22.8709 39.4671 23.2729 39.715 23.5208C39.9629 23.7687 40.3649 23.7687 40.6129 23.5208L43.55 20.5836L46.4872 23.5208C46.7351 23.7687 47.1371 23.7687 47.3851 23.5208C47.633 23.2729 47.633 22.8709 47.3851 22.6229L44.4479 19.6858L47.3851 16.7486C47.633 16.5007 47.633 16.0987 47.3851 15.8507C47.1371 15.6028 46.7351 15.6028 46.4872 15.8507L43.55 18.7879L40.6129 15.8507C40.3649 15.6028 39.9629 15.6028 39.715 15.8507C39.4671 16.0987 39.4671 16.5007 39.715 16.7486L42.6522 19.6858L39.715 22.6229Z" fill="white"/>
</svg>
