<svg  viewBox="0 0 69 69" fill="none" xmlns="http://www.w3.org/2000/svg">
<path d="M68.64 34.32C68.64 53.2744 53.2744 68.64 34.32 68.64C15.3656 68.64 0 53.2744 0 34.32C0 15.3656 15.3656 0 34.32 0C53.2744 0 68.64 15.3656 68.64 34.32Z" fill="#F9943B"/>
<path d="M49.3032 21.9027H43.5002V18.7399C43.5002 17.2266 42.4973 16 41.2658 16H27.5513C26.3151 16 25.3168 17.2266 25.3168 18.7399V21.9027H24.897C23.0544 21.9027 21.2071 21.898 19.3645 21.9027C16.3464 21.9121 14 24.2854 14 27.3213V42.7642C14 45.8848 16.3091 48.2205 19.4018 48.2205H49.3312C49.6624 48.2205 49.9983 48.2205 50.3248 48.1594C53.0724 47.6518 54.817 45.5323 54.817 42.7078V27.4482C54.817 24.229 52.5033 21.9027 49.3032 21.9027ZM28.8294 19.7362C28.8294 18.7258 29.6411 17.908 30.644 17.908H38.173C39.1759 17.908 39.9876 18.7258 39.9876 19.7362V20.1262C39.9876 21.1367 39.1759 21.9544 38.173 21.9544H30.644C29.6411 21.9544 28.8294 21.1367 28.8294 20.1262V19.7362ZM34.2966 44.5407C29.1746 44.5031 24.9856 40.1936 25.0229 34.9958C25.0602 29.798 29.2912 25.5872 34.4458 25.6295C39.6238 25.6671 43.8267 29.9202 43.7894 35.0804C43.7568 40.3533 39.5165 44.5783 34.2966 44.5407ZM34.4038 28.7171C30.9379 28.7171 28.083 31.5557 28.083 35.0052C28.083 38.544 30.8912 41.4201 34.3805 41.453C37.8278 41.4859 40.748 38.5393 40.7247 35.0569C40.706 31.5369 37.8931 28.7171 34.4038 28.7171Z" fill="white"/>
<path d="M58 44.6772C58 48.7215 54.7517 52 50.7447 52C46.7377 52 43.4894 48.7215 43.4894 44.6772C43.4894 40.6329 46.7377 37.3543 50.7447 37.3543C54.7517 37.3543 58 40.6329 58 44.6772Z" fill="#D05301"/>
<path fill-rule="evenodd" clip-rule="evenodd" d="M50.677 45.7778C50.3268 45.7778 50.0428 45.4912 50.0428 45.1377V42.2618C50.0428 41.9083 50.3268 41.6217 50.677 41.6217H50.7322C51.0824 41.6217 51.3664 41.9083 51.3664 42.2618V45.1377C51.3664 45.4912 51.0824 45.7778 50.7322 45.7778H50.677Z" fill="white"/>
<path d="M51.3664 46.891C51.3664 47.2599 51.0701 47.5589 50.7046 47.5589C50.3391 47.5589 50.0428 47.2599 50.0428 46.891C50.0428 46.5221 50.3391 46.2231 50.7046 46.2231C51.0701 46.2231 51.3664 46.5221 51.3664 46.891Z" fill="white"/>
</svg>
