<svg  viewBox="0 0 69 69" fill="none" xmlns="http://www.w3.org/2000/svg">
    <path d="M69 34.5C69 53.5538 53.5538 69 34.5 69C15.4462 69 0 53.5538 0 34.5C0 15.4462 15.4462 0 34.5 0C53.5538 0 69 15.4462 69 34.5Z" fill="#F9943B"/>
    <path d="M37.1213 56.1213C36.5587 56.6839 35.7956 57 35 57C34.2044 57 33.4413 56.6839 32.8787 56.1213C32.3161 55.5587 32 54.7956 32 54C32 53.2044 32.3161 52.4413 32.8787 51.8787C33.4413 51.3161 34.2044 51 35 51C35.7956 51 36.5587 51.3161 37.1213 51.8787C37.6839 52.4413 38 53.2044 38 54C38 54.7956 37.6839 55.5587 37.1213 56.1213Z" fill="white"/>
    <path fill-rule="evenodd" clip-rule="evenodd" d="M35 12C35.7956 12 36.5587 12.3544 37.1213 12.9852C37.6839 13.616 38 14.4715 38 15.3636V44C38 44.8921 37.6839 45.7476 37.1213 46.3784C36.5587 47.0093 35.7956 47.3636 35 47.3636C34.2044 47.3636 33.4413 47.0093 32.8787 46.3784C32.3161 45.7476 32 44.8921 32 44V15.3636C32 14.4715 32.3161 13.616 32.8787 12.9852C33.4413 12.3544 34.2044 12 35 12Z" fill="white"/>
</svg>
