<svg width="143" height="189" viewBox="0 0 143 189" fill="none" xmlns="http://www.w3.org/2000/svg">
<path d="M83.9502 51.0963C83.3532 50.4 82.5017 50.3546 81.6404 50.6701C80.2049 51.1959 79.4934 52.6867 78.7249 54.2969C77.6419 56.5662 76.4456 59.0729 72.9497 59.4507C62.7226 58.2519 52.0604 59.4848 41.8078 63.5171C8.57169 76.5885 -7.77496 114.128 5.29652 147.364C18.368 180.6 55.9077 196.947 89.1438 183.876C122.38 170.804 138.727 133.264 125.655 100.028C118.741 82.4472 104.979 69.592 88.6303 63.3172C86.0217 61.9238 85.591 58.5934 85.212 55.664C84.9652 53.756 84.7404 52.0181 83.9502 51.0963Z" fill="#FC2E20"/>
<path d="M90.6687 37.8292C90.6687 41.6008 87.6112 44.6584 83.8395 44.6584C80.0679 44.6584 77.0103 41.6008 77.0103 37.8292C77.0103 34.0575 80.0679 31 83.8395 31C87.6112 31 90.6687 34.0575 90.6687 37.8292Z" fill="#FC2E20"/>
<path d="M142.01 24C142.01 31.1797 136.19 37 129.01 37C121.831 37 116.01 31.1797 116.01 24C116.01 16.8203 121.831 11 129.01 11C136.19 11 142.01 16.8203 142.01 24Z" fill="#FC2E20"/>
<path d="M77.0103 3.5C77.0103 5.433 75.4433 7 73.5103 7C71.5773 7 70.0103 5.433 70.0103 3.5C70.0103 1.567 71.5773 0 73.5103 0C75.4433 0 77.0103 1.567 77.0103 3.5Z" fill="#FC2E20"/>
</svg>
