<svg viewBox="0 0 69 69" fill="none" xmlns="http://www.w3.org/2000/svg">
<path d="M69 34.5C69 53.5538 53.5538 69 34.5 69C15.4462 69 0 53.5538 0 34.5C0 15.4462 15.4462 0 34.5 0C53.5538 0 69 15.4462 69 34.5Z" fill="#F9943B"/>
<path d="M34.4976 39.7143C38.4242 39.7143 41.9851 41.541 44.5657 44.4887L41.2089 48.3267C39.4901 46.3616 37.1161 45.1429 34.4976 45.1429C31.8791 45.1429 29.5052 46.3616 27.7864 48.3267L24.4296 44.4887C25.7501 42.974 27.3193 41.7725 29.047 40.9532C30.7748 40.1338 32.6271 39.7128 34.4976 39.7143ZM17.7112 36.8073C22.1957 31.68 28.1567 28.8572 34.4976 28.8572C40.8385 28.8572 46.7996 31.68 51.284 36.8073L47.9272 40.6453C44.3401 36.544 39.5708 34.2857 34.4976 34.2857C29.4244 34.2857 24.6551 36.544 21.068 40.6453L17.7112 36.8073ZM47.4358 20.9885C51.3845 22.8964 54.9721 25.6617 58 29.1313L54.6432 32.9693C49.2614 26.8187 42.1086 23.4286 34.5 23.4286C26.8914 23.4286 19.7362 26.816 14.3568 32.9693L11 29.1313C14.0828 25.5969 17.7461 22.7939 21.7795 20.8836C25.8128 18.9733 30.1367 17.9934 34.5024 18C38.9892 18 43.3407 19.0043 47.4405 20.9885H47.4358ZM32.1236 53.2857C32.1236 52.5658 32.3738 51.8755 32.819 51.3664C33.2642 50.8574 33.868 50.5714 34.4976 50.5714C35.1272 50.5714 35.7311 50.8574 36.1763 51.3664C36.6215 51.8755 36.8716 52.5658 36.8716 53.2857C36.8716 54.0056 36.6215 54.696 36.1763 55.205C35.7311 55.714 35.1272 56 34.4976 56C33.868 56 33.2642 55.714 32.819 55.205C32.3738 54.696 32.1236 54.0056 32.1236 53.2857Z" fill="white"/>
<path d="M62 26.5C62 31.1944 58.1944 35 53.5 35C48.8056 35 45 31.1944 45 26.5C45 21.8056 48.8056 18 53.5 18C58.1944 18 62 21.8056 62 26.5Z" fill="#D05301"/>
<path fill-rule="evenodd" clip-rule="evenodd" d="M53.4207 27.7775C53.0104 27.7775 52.6777 27.4449 52.6777 27.0345V23.6964C52.6777 23.286 53.0104 22.9534 53.4207 22.9534H53.4854C53.8957 22.9534 54.2284 23.286 54.2284 23.6964V27.0345C54.2284 27.4449 53.8957 27.7775 53.4854 27.7775H53.4207Z" fill="white"/>
<path d="M54.2284 29.0697C54.2284 29.4979 53.8812 29.845 53.453 29.845C53.0249 29.845 52.6777 29.4979 52.6777 29.0697C52.6777 28.6415 53.0249 28.2944 53.453 28.2944C53.8812 28.2944 54.2284 28.6415 54.2284 29.0697Z" fill="white"/>
</svg>
