<svg viewBox="0 0 69 69" fill="none" xmlns="http://www.w3.org/2000/svg">
<path d="M69 34.5C69 53.5538 53.5538 69 34.5 69C15.4462 69 0 53.5538 0 34.5C0 15.4462 15.4462 0 34.5 0C53.5538 0 69 15.4462 69 34.5Z" fill="#F9943B"/>
<path d="M35 42.612C39.1363 42.612 42.5 39.2069 42.5 35.0199V23.6319C42.5 19.424 39.1531 16 35.0394 16C34.9074 16.0008 34.7759 16.0167 34.6475 16.0475C32.7223 16.1419 30.9067 16.9819 29.5763 18.3937C28.2459 19.8054 27.5025 21.6808 27.5 23.6319V35.0199C27.5 39.2069 30.8637 42.612 35 42.612Z" fill="white"/>
<path d="M33.125 50.073V54H36.875V50.073C44.2606 49.1335 50 42.7505 50 35.0199H46.25C46.25 41.3004 41.2044 46.408 35 46.408C28.7956 46.408 23.75 41.3004 23.75 35.0199H20C20 42.7486 25.7394 49.1335 33.125 50.073Z" fill="white"/>
<path d="M52 19.5C52 24.1944 48.1944 28 43.5 28C38.8056 28 35 24.1944 35 19.5C35 14.8056 38.8056 11 43.5 11C48.1944 11 52 14.8056 52 19.5Z" fill="#D05301"/>
<path fill-rule="evenodd" clip-rule="evenodd" d="M43.4207 20.7775C43.0104 20.7775 42.6777 20.4449 42.6777 20.0345V16.6964C42.6777 16.286 43.0104 15.9534 43.4207 15.9534H43.4854C43.8957 15.9534 44.2284 16.286 44.2284 16.6964V20.0345C44.2284 20.4449 43.8957 20.7775 43.4854 20.7775H43.4207Z" fill="white"/>
<path d="M44.2284 22.0697C44.2284 22.4979 43.8812 22.845 43.453 22.845C43.0249 22.845 42.6777 22.4979 42.6777 22.0697C42.6777 21.6415 43.0249 21.2944 43.453 21.2944C43.8812 21.2944 44.2284 21.6415 44.2284 22.0697Z" fill="white"/>
</svg>
