<svg width="151" height="202" viewBox="0 0 151 202" fill="none" xmlns="http://www.w3.org/2000/svg">
<path d="M125.871 69.8758C156.931 97.6947 159.559 145.426 131.74 176.486C103.921 207.547 56.1899 210.175 25.1294 182.356C-5.93114 154.537 -8.55898 106.806 19.2599 75.7452C32.6025 60.848 50.5255 52.4912 68.993 50.8972C73.2912 50.5262 76.8346 47.0852 76.8264 42.771L76.8232 41.0796C76.8192 39.0116 75.4959 37.2262 73.936 35.8686C69.4553 31.969 68.9843 25.1753 72.8839 20.6946C76.7836 16.2139 83.5772 15.7428 88.0579 19.6425C92.5387 23.5422 93.0097 30.3358 89.11 34.8165C88.7779 35.1981 88.4248 35.5507 88.054 35.8739C85.4051 38.1823 82.5739 41.0018 82.5806 44.5154C82.5875 48.1615 85.3736 51.169 88.9619 51.8156C102.255 54.211 115.071 60.2029 125.871 69.8758Z" fill="#F9943B"/>
<path d="M142.781 11C142.781 17.0751 137.856 22 131.781 22C125.706 22 120.781 17.0751 120.781 11C120.781 4.92487 125.706 0 131.781 0C137.856 0 142.781 4.92487 142.781 11Z" fill="#F9943B"/>
<path d="M116.146 43.1189C116.146 45.4164 114.284 47.2789 111.986 47.2789C109.689 47.2789 107.826 45.4164 107.826 43.1189C107.826 40.8215 109.689 38.959 111.986 38.959C114.284 38.959 116.146 40.8215 116.146 43.1189Z" fill="#F9943B"/>
<path d="M63.5466 6.77329C63.5466 8.30494 62.3049 9.54659 60.7733 9.54659C59.2416 9.54659 58 8.30494 58 6.77329C58 5.24165 59.2416 4 60.7733 4C62.3049 4 63.5466 5.24165 63.5466 6.77329Z" fill="#F9943B"/>
</svg>
