<svg viewBox="0 0 16 9" fill="none" xmlns="http://www.w3.org/2000/svg">
    <path d="M1.97175 7.84306L8.00062 2.26413L14.0295 7.84306C14.1372 7.94294 14.2818 7.99885 14.4324 7.99885C14.583 7.99885 14.7275 7.94294 14.8353 7.84306C14.8874 7.79455 14.9289 7.73665 14.9571 7.67274C14.9854 7.60884 15 7.54022 15 7.4709C15 7.40159 14.9854 7.33297 14.9571 7.26906C14.9289 7.20516 14.8874 7.14726 14.8353 7.09875L8.4216 1.16255L1.16597 7.84421C1.27368 7.94408 1.41828 8 1.56886 8C1.71943 8 1.86403 7.94408 1.97175 7.84421V7.84306ZM1.97175 7.84306H2.47175V7.84421V8.06161M1.97175 7.84306L1.97281 7.84421L2.31134 8.21004L2.47175 8.06161M0.58631 7.87662C0.64286 8.00382 0.72483 8.11719 0.826004 8.21085C1.02871 8.3988 1.2957 8.5 1.56886 8.5C1.84202 8.5 2.10901 8.3988 2.31171 8.21085L2.47175 8.06245V8.06161M0.58631 7.87662L1.04222 7.67393L0.586313 7.87663C0.586313 7.87663 0.58631 7.87663 0.58631 7.87662ZM0.58631 7.87662C0.529613 7.7491 0.5 7.61106 0.5 7.4709C0.5 7.33074 0.529614 7.1927 0.58631 7.06518C0.642929 6.93784 0.725027 6.82434 0.826372 6.73062L1.16597 7.0976L0.826589 6.73042L7.24004 0.795568L7.24005 0.795556C7.44762 0.603493 7.72091 0.5 8.00062 0.5C8.28033 0.5 8.55362 0.603493 8.76118 0.795556L8.76123 0.795601L15.1749 6.7318L15.1758 6.73263C15.2766 6.82635 15.3581 6.93965 15.4144 7.06668C15.4706 7.19379 15.5 7.33129 15.5 7.4709C15.5 7.61051 15.4706 7.74802 15.4144 7.87513C15.3581 8.00216 15.2765 8.11546 15.1758 8.20917L15.1752 8.2097L15.1752 8.2097C14.9725 8.39765 14.7055 8.49885 14.4324 8.49885C14.1594 8.49885 13.8925 8.39777 13.6899 8.21004C13.6898 8.21 13.6898 8.20996 13.6898 8.20992C13.6897 8.20984 13.6896 8.20977 13.6895 8.2097L8.00062 2.94537L2.47175 8.06161" fill="white" stroke="white"/>
</svg>
