<svg width="51" height="51" viewBox="0 0 51 51" fill="none" xmlns="http://www.w3.org/2000/svg">
    <path fill-rule="evenodd" clip-rule="evenodd" d="M25.5 51C39.5833 51 51 39.5833 51 25.5C51 11.4167 39.5833 0 25.5 0C11.4167 0 0 11.4167 0 25.5C0 39.5833 11.4167 51 25.5 51ZM31.6965 11.6418C31.1725 10.7454 30.2519 10.2014 29.2625 10.2014L29.2612 10.2H21.8599C21.3577 10.2002 20.8644 10.3409 20.4292 10.6083C19.994 10.8756 19.6322 11.2601 19.38 11.7234L17.6192 14.9566H14.3438C13.2448 14.9566 12.1908 15.4223 11.4137 16.2513C10.6366 17.0803 10.2 18.2047 10.2 19.3771V36.3794C10.2 37.5518 10.6366 38.6762 11.4137 39.5052C12.1908 40.3343 13.2448 40.8 14.3438 40.8H36.6562C37.7552 40.8 38.8092 40.3343 39.5863 39.5052C40.3634 38.6762 40.8 37.5518 40.8 36.3794V19.3771C40.8 18.2047 40.3634 17.0803 39.5863 16.2513C38.8092 15.4223 37.7552 14.9566 36.6562 14.9566H33.6358L31.6965 11.6418ZM22.8164 20.2921C23.6672 19.9161 24.5791 19.7226 25.5 19.7226C27.3598 19.7226 29.1435 20.5108 30.4586 21.9138C31.7737 23.3167 32.5125 25.2195 32.5125 27.2036C32.5125 29.1877 31.7737 31.0905 30.4586 32.4935C29.1435 33.8965 27.3598 34.6846 25.5 34.6846C24.5791 34.6846 23.6672 34.4911 22.8164 34.1152C21.9656 33.7392 21.1926 33.1882 20.5414 32.4935C19.8902 31.7988 19.3737 30.9741 19.0213 30.0665C18.6689 29.1588 18.4875 28.186 18.4875 27.2036C18.4875 26.2212 18.6689 25.2484 19.0213 24.3408C19.3737 23.4331 19.8902 22.6084 20.5414 21.9138C21.1926 21.2191 21.9656 20.668 22.8164 20.2921ZM27.4517 22.1771C26.8329 21.9036 26.1697 21.7629 25.5 21.7629C24.1474 21.7629 22.8502 22.3361 21.8938 23.3565C20.9373 24.3768 20.4 25.7607 20.4 27.2036C20.4 28.6466 20.9373 30.0305 21.8938 31.0508C22.8502 32.0711 24.1474 32.6444 25.5 32.6444C26.1697 32.6444 26.8329 32.5036 27.4517 32.2302C28.0704 31.9568 28.6327 31.556 29.1062 31.0508C29.5798 30.5456 29.9555 29.9458 30.2118 29.2857C30.4681 28.6256 30.6 27.9181 30.6 27.2036C30.6 26.4891 30.4681 25.7817 30.2118 25.1216C29.9555 24.4615 29.5798 23.8617 29.1062 23.3565C28.6327 22.8512 28.0704 22.4505 27.4517 22.1771Z" fill="#709975"/>
</svg>
