<svg width="202" height="218" viewBox="0 0 202 218" fill="none" xmlns="http://www.w3.org/2000/svg">
    <path d="M198 214H4C5.2416 205.945 11.4496 189.522 20.1408 183.245C29.7632 175.086 42.4896 171.891 55.216 165.985C61.5275 163.056 74.5229 155.755 76.0128 149.98V130.21C72.288 127.699 61.9827 110.502 64.2176 103.221C53.664 103.221 50.56 78.1151 59.5616 74.9769C55.8368 67.4451 50.9946 46.4191 61.424 22.5686C67.1876 9.38807 86.256 4.0531 100.534 4.0531C111.088 3.73927 133.437 4.0531 145.542 27.5897C150.775 37.7636 146.97 69.077 143.99 78.1151C149.267 80.6257 148.336 99.7061 137.162 103.221C137.162 109.183 135.299 118.284 126.298 130.21V149.98C128.781 153.746 136.541 162.219 147.715 165.985C154.854 167.868 171.554 173.705 181.238 181.99C186.826 186.802 198 199.941 198 214Z" stroke="#CBD4E3" stroke-width="8" stroke-linecap="round" stroke-linejoin="round"/>
</svg>
