<svg width="28" height="28" viewBox="0 0 28 28" fill="none" xmlns="http://www.w3.org/2000/svg">
<path d="M25.0527 13.2617H28C28 5.70169 22.2925 0 14.7223 0V2.94737C20.7083 2.94737 25.0527 7.28442 25.0527 13.2617Z" fill="white"/>
<path d="M14.737 8.8421C17.8361 8.8421 19.158 10.164 19.158 13.2632H22.1053C22.1053 8.51052 19.4896 5.89473 14.737 5.89473V8.8421ZM19.7799 16.8634C19.4967 16.606 19.1246 16.4687 18.7422 16.4805C18.3597 16.4924 17.9968 16.6524 17.73 16.9267L14.2036 20.5535C13.3547 20.3914 11.6482 19.8594 9.89163 18.1072C8.13503 16.3491 7.60303 14.6381 7.44535 13.7952L11.0691 10.2672C11.3438 10.0006 11.504 9.63763 11.5158 9.25504C11.5277 8.87245 11.3902 8.50027 11.1325 8.21726L5.68727 2.22968C5.42945 1.94578 5.07111 1.77358 4.68836 1.74964C4.30561 1.7257 3.9286 1.85191 3.63741 2.10147L0.439567 4.84399C0.184787 5.0997 0.0327175 5.44003 0.0122048 5.80042C-0.00990013 6.16884 -0.431367 14.896 6.33569 21.6661C12.2392 27.5682 19.634 28 21.6706 28C21.9683 28 22.151 27.9912 22.1996 27.9882C22.56 27.968 22.9001 27.8153 23.1546 27.5594L25.8956 24.36C26.1453 24.069 26.2718 23.6921 26.2481 23.3093C26.2245 22.9266 26.0525 22.5681 25.7689 22.3101L19.7799 16.8634Z" fill="white"/>
</svg>
