<svg width="27" height="27" viewBox="0 0 27 27" fill="none" xmlns="http://www.w3.org/2000/svg">
<path d="M19.7799 15.8634C19.4967 15.6061 19.1246 15.4688 18.7422 15.4806C18.3597 15.4924 17.9968 15.6524 17.73 15.9268L14.2036 19.5535C13.3547 19.3914 11.6482 18.8594 9.89163 17.1072C8.13503 15.3491 7.60303 13.6382 7.44535 12.7952L11.0691 9.26722C11.3438 9.00067 11.504 8.63769 11.5158 8.2551C11.5277 7.87251 11.3902 7.50033 11.1325 7.21732L5.68727 1.22974C5.42945 0.945846 5.07111 0.773642 4.68836 0.749702C4.30561 0.725763 3.9286 0.851974 3.63741 1.10153L0.439567 3.84406C0.184787 4.09976 0.0327175 4.44009 0.0122048 4.80048C-0.00990013 5.1689 -0.431367 13.8961 6.33569 20.6662C12.2392 26.5683 19.634 27.0001 21.6706 27.0001C21.9683 27.0001 22.151 26.9912 22.1996 26.9883C22.56 26.9681 22.9001 26.8154 23.1546 26.5594L25.8956 23.3601C26.1453 23.0691 26.2718 22.6922 26.2481 22.3094C26.2245 21.9267 26.0525 21.5682 25.7689 21.3102L19.7799 15.8634Z" fill="white"/>
<path d="M20 2.81429L20.0002 2.81429C20.7803 2.81281 21.5442 3.03041 22.2055 3.44109L16.4412 9.20541C16.0649 8.59851 15.8499 7.9048 15.8174 7.19013C15.783 6.43452 15.954 5.68371 16.3123 5.01754C16.6705 4.35136 17.2026 3.79471 17.8519 3.40676C18.5013 3.01881 19.2436 2.81407 20 2.81429ZM20 11.1857H20C19.1899 11.1857 18.4358 10.9568 17.7946 10.5589L23.5588 4.79459C23.9351 5.40149 24.1501 6.0952 24.1826 6.80987C24.217 7.56548 24.046 8.31629 23.6877 8.98246C23.3295 9.64864 22.7974 10.2053 22.1481 10.5932C21.4987 10.9812 20.7564 11.1859 20 11.1857ZM15.6866 2.68665C14.5427 3.83062 13.9 5.38218 13.9 7C13.9 8.61782 14.5427 10.1694 15.6866 11.3134C16.8306 12.4573 18.3822 13.1 20 13.1C21.6178 13.1 23.1694 12.4573 24.3134 11.3134C25.4573 10.1694 26.1 8.61782 26.1 7C26.1 5.38218 25.4573 3.83062 24.3134 2.68665C23.1694 1.54268 21.6178 0.9 20 0.9C18.3822 0.9 16.8306 1.54268 15.6866 2.68665Z" fill="white" stroke="white" stroke-width="0.2"/>
</svg>
