<svg width="26" height="36" viewBox="0 0 26 36" fill="none" xmlns="http://www.w3.org/2000/svg">
<path d="M18 6.33334C18 3.57192 15.7614 1.33334 13 1.33334C10.2386 1.33334 8 3.57192 8 6.33334V16.3333C8 19.0948 10.2386 21.3333 13 21.3333C15.7614 21.3333 18 19.0948 18 16.3333V6.33334Z" stroke="#627599" stroke-width="1.5"/>
<path d="M1.33333 14.6667V16.3334C1.33333 19.4275 2.56249 22.395 4.75042 24.5829C6.93834 26.7709 9.9058 28 13 28C16.0942 28 19.0617 26.7709 21.2496 24.5829C23.4375 22.395 24.6667 19.4275 24.6667 16.3334V14.6667" stroke="#627599" stroke-width="1.5" stroke-linecap="round" stroke-linejoin="round"/>
<path d="M13 34.6667H18M13 28V34.6667V28ZM13 34.6667H8H13Z" stroke="#627599" stroke-width="1.5" stroke-linecap="round" stroke-linejoin="round"/>
</svg>
