<svg width="17" height="11" viewBox="0 0 17 11" fill="none" xmlns="http://www.w3.org/2000/svg">
<path fill-rule="evenodd" clip-rule="evenodd" d="M17 5.5C17 5.33795 16.936 5.18253 16.8222 5.06794C16.7083 4.95335 16.5539 4.88897 16.3929 4.88897H2.07374L5.89485 1.0444C5.9513 0.987593 5.99607 0.920149 6.02662 0.845922C6.05717 0.771695 6.07289 0.69214 6.07289 0.611797C6.07289 0.531455 6.05717 0.451899 6.02662 0.377673C5.99607 0.303446 5.9513 0.236002 5.89485 0.179191C5.83841 0.12238 5.77139 0.077316 5.69764 0.0465703C5.62389 0.0158246 5.54485 0 5.46502 0C5.3852 0 5.30615 0.0158246 5.2324 0.0465703C5.15865 0.077316 5.09164 0.12238 5.03519 0.179191L0.17836 5.06739C0.121822 5.12415 0.0769659 5.19158 0.04636 5.26581C0.0157541 5.34005 0 5.41963 0 5.5C0 5.58037 0.0157541 5.65995 0.04636 5.73419C0.0769659 5.80842 0.121822 5.87585 0.17836 5.93261L5.03519 10.8208C5.09164 10.8776 5.15865 10.9227 5.2324 10.9534C5.30615 10.9842 5.3852 11 5.46502 11C5.54485 11 5.62389 10.9842 5.69764 10.9534C5.77139 10.9227 5.83841 10.8776 5.89485 10.8208C5.9513 10.764 5.99607 10.6966 6.02662 10.6223C6.05717 10.5481 6.07289 10.4685 6.07289 10.3882C6.07289 10.3079 6.05717 10.2283 6.02662 10.1541C5.99607 10.0799 5.9513 10.0124 5.89485 9.9556L2.07374 6.11103H16.3929C16.5539 6.11103 16.7083 6.04665 16.8222 5.93206C16.936 5.81747 17 5.66205 17 5.5Z" fill="#627599"/>
</svg>
