<svg width="100" height="100" viewBox="0 0 100 100" fill="none" xmlns="http://www.w3.org/2000/svg">
<path d="M100 50C100 77.6142 77.6142 100 50 100C22.3858 100 0 77.6142 0 50C0 22.3858 22.3858 0 50 0C77.6142 0 100 22.3858 100 50Z" fill="#709975"/>
<path d="M45.0297 55.2905C45.0297 55.2905 41.3596 54.6032 39.858 55.2905C38.7399 55.8015 34.4125 57.3603 32.2777 58.1236V72.4506C33.5135 72.3794 35.972 72.2485 37.0225 72.2905C40.1528 72.4182 42.4906 73.1637 44.854 73.9172C47.0597 74.6207 49.2878 75.3322 52.2007 75.5537C52.9354 75.6087 53.6475 75.6814 54.3386 75.751C56.8359 76.0032 59.0463 76.2264 60.8765 75.5537C63.2126 74.6951 76.5558 68.1703 78.2233 66.453C79.8924 64.7357 79.0578 60.098 73.8862 60.9566C71.3358 61.3803 68.3762 62.5995 65.6953 63.704C62.9403 64.8375 60.477 65.853 59.0415 65.7657C56.2059 65.5943 48.6982 64.2198 48.6982 64.2198L57.3176 64.3249C57.3176 64.3249 58.5356 64.3896 60.2079 63.1898C61.8834 61.9899 63.3786 58.5537 60.8765 58.5537C58.3745 58.5537 55.7049 57.6934 55.7049 57.6934L45.0297 55.2905ZM21 56.6019C21 56.173 21.1697 55.7617 21.4719 55.4585C21.774 55.1552 22.1838 54.9849 22.6111 54.9849H27.4444C27.8717 54.9849 28.2815 55.1552 28.5837 55.4585C28.8858 55.7617 29.0555 56.173 29.0555 56.6019V74.383C29.0555 74.8118 28.8858 75.2231 28.5837 75.5264C28.2815 75.8296 27.8717 76 27.4444 76H22.6111C22.1838 76 21.774 75.8296 21.4719 75.5264C21.1697 75.2231 21 74.8118 21 74.383V56.6019Z" fill="white"/>
<path d="M56.2462 33.9104C61.1748 33.9104 65.1692 29.9016 65.1692 24.9552C65.1692 20.0089 61.1748 16 56.2462 16C51.3175 16 47.3231 20.0089 47.3231 24.9552C47.3231 29.9016 51.3175 33.9104 56.2462 33.9104ZM62.4923 36.1492H61.3281C59.7805 36.8628 58.0587 37.2686 56.2462 37.2686C54.4337 37.2686 52.7188 36.8628 51.1642 36.1492H50C44.8274 36.1492 40.6308 40.361 40.6308 45.5522V48.4626C40.6308 50.3166 42.1296 51.8208 43.9769 51.8208L62.4923 55.8507C64.2769 56.2984 71.8615 56.3614 71.8615 54.5074V45.5522C71.8615 40.361 67.6649 36.1492 62.4923 36.1492Z" fill="white"/>
</svg>
