<svg width="24" height="24" viewBox="0 0 24 24" fill="none" xmlns="http://www.w3.org/2000/svg">
<path d="M18.219 0.22032C18.2887 0.150481 18.3714 0.0950726 18.4626 0.0572665C18.5537 0.0194604 18.6513 0 18.75 0C18.8487 0 18.9463 0.0194604 19.0374 0.0572665C19.1286 0.0950726 19.2113 0.150481 19.281 0.22032L22.281 3.22003C22.3508 3.2897 22.4063 3.37245 22.4441 3.46356C22.4819 3.55467 22.5013 3.65234 22.5013 3.75098C22.5013 3.84962 22.4819 3.9473 22.4441 4.03841C22.4063 4.12952 22.3508 4.21227 22.281 4.28193L19.281 7.28165C19.1402 7.42246 18.9492 7.50157 18.75 7.50157C18.5508 7.50157 18.3598 7.42246 18.219 7.28165C18.0782 7.14083 17.9991 6.94984 17.9991 6.7507C17.9991 6.55155 18.0782 6.36056 18.219 6.21975L19.9395 4.50091H3C2.60218 4.50091 2.22064 4.65893 1.93934 4.94021C1.65804 5.22149 1.5 5.60298 1.5 6.00077V15.7498C1.5 15.9487 1.42098 16.1395 1.28033 16.2801C1.13968 16.4208 0.948912 16.4998 0.75 16.4998C0.551088 16.4998 0.360322 16.4208 0.21967 16.2801C0.0790178 16.1395 0 15.9487 0 15.7498V6.00077C0 5.20519 0.31607 4.44221 0.87868 3.87965C1.44129 3.31709 2.20435 3.00105 3 3.00105H19.9395L18.219 1.28222C18.1492 1.21256 18.0937 1.1298 18.0559 1.03869C18.0181 0.947583 17.9987 0.849911 17.9987 0.751269C17.9987 0.652628 18.0181 0.554955 18.0559 0.463846C18.0937 0.372737 18.1492 0.289981 18.219 0.22032ZM22.5 17.9996C22.5 18.3974 22.342 18.7789 22.0607 19.0602C21.7794 19.3415 21.3978 19.4995 21 19.4995H4.0605L5.781 17.7806C5.85073 17.7109 5.90605 17.6281 5.94379 17.537C5.98152 17.4459 6.00095 17.3483 6.00095 17.2497C6.00095 17.1511 5.98152 17.0534 5.94379 16.9623C5.90605 16.8712 5.85073 16.7885 5.781 16.7187C5.71127 16.649 5.62848 16.5937 5.53738 16.556C5.44627 16.5182 5.34862 16.4988 5.25 16.4988C5.15138 16.4988 5.05373 16.5182 4.96262 16.556C4.87152 16.5937 4.78873 16.649 4.719 16.7187L1.719 19.7185C1.64916 19.7881 1.59374 19.8709 1.55593 19.962C1.51812 20.0531 1.49866 20.1508 1.49866 20.2494C1.49866 20.3481 1.51812 20.4457 1.55593 20.5368C1.59374 20.6279 1.64916 20.7107 1.719 20.7804L4.719 23.7801C4.85983 23.9209 5.05084 24 5.25 24C5.44916 24 5.64017 23.9209 5.781 23.7801C5.92183 23.6393 6.00095 23.4483 6.00095 23.2491C6.00095 23.05 5.92183 22.859 5.781 22.7182L4.0605 20.9993H21C21.7956 20.9993 22.5587 20.6833 23.1213 20.1207C23.6839 19.5582 24 18.7952 24 17.9996V8.25055C24 8.05166 23.921 7.86091 23.7803 7.72027C23.6397 7.57964 23.4489 7.50063 23.25 7.50063C23.0511 7.50063 22.8603 7.57964 22.7197 7.72027C22.579 7.86091 22.5 8.05166 22.5 8.25055V17.9996ZM16.5 12.0002C16.5 13.1936 16.0259 14.338 15.182 15.1819C14.3381 16.0257 13.1935 16.4998 12 16.4998C10.8065 16.4998 9.66193 16.0257 8.81802 15.1819C7.97411 14.338 7.5 13.1936 7.5 12.0002C7.5 10.8068 7.97411 9.66235 8.81802 8.81852C9.66193 7.97469 10.8065 7.50063 12 7.50063C13.1935 7.50063 14.3381 7.97469 15.182 8.81852C16.0259 9.66235 16.5 10.8068 16.5 12.0002Z" fill="white"/>
</svg>
